<?xml version="1.0" encoding="UTF-8"?> <svg xmlns="http://www.w3.org/2000/svg" width="994" height="865" viewBox="0 0 994 865"><g id="infographic" transform="translate(-185 -58)"><rect id="Rectangle_9" data-name="Rectangle 9" width="994" height="865" transform="translate(185 58)" fill="#fff"></rect><g id="Group_5" data-name="Group 5"><g id="Rectangle_1" data-name="Rectangle 1" transform="translate(614 118)" fill="#fff" stroke="#707070" stroke-linecap="round" stroke-width="1" stroke-dasharray="5 7"><rect width="136" height="136" rx="16" stroke="none"></rect><rect x="0.5" y="0.5" width="135" height="135" rx="15.5" fill="none"></rect></g><g id="Rectangle_2" data-name="Rectangle 2" transform="translate(240 383)" fill="#fff" stroke="#707070" stroke-linecap="round" stroke-width="1" stroke-dasharray="5 7"><rect width="136" height="136" rx="16" stroke="none"></rect><rect x="0.5" y="0.5" width="135" height="135" rx="15.5" fill="none"></rect></g><g id="Rectangle_3" data-name="Rectangle 3" transform="translate(614 383)" fill="#fff" stroke="#707070" stroke-linecap="round" stroke-width="1" stroke-dasharray="5 7"><rect width="136" height="136" rx="16" stroke="none"></rect><rect x="0.5" y="0.5" width="135" height="135" rx="15.5" fill="none"></rect></g><g id="Rectangle_4" data-name="Rectangle 4" transform="translate(990 383)" fill="#fff" stroke="#707070" stroke-linecap="round" stroke-width="1" stroke-dasharray="5 7"><rect width="136" height="136" rx="16" stroke="none"></rect><rect x="0.5" y="0.5" width="135" height="135" rx="15.5" fill="none"></rect></g><g id="Rectangle_5" data-name="Rectangle 5" transform="translate(614 650)" fill="#fff" stroke="#707070" stroke-linecap="round" stroke-width="1" stroke-dasharray="5 7"><rect width="136" height="136" rx="16" stroke="none"></rect><rect x="0.5" y="0.5" width="135" height="135" rx="15.5" fill="none"></rect></g><g id="Group_2" data-name="Group 2" transform="translate(-33.83 62.346)"><path id="Path_1" data-name="Path 1" d="M187.433,104.474l-14.378,4.918,14.378,4.918h0a1.328,1.328,0,1,1-.862,2.511l-16.295-5.576v23.948l17.158,5.872h0a1.331,1.331,0,0,1-.862,2.519l-18.056-6.177-.035-.021a1.4,1.4,0,0,1-.287-.168c-.048-.035-.106-.062-.152-.1h0a1.413,1.413,0,0,1-.192-.267,1.5,1.5,0,0,1-.1-.154,1.374,1.374,0,0,1-.08-.267,1.245,1.245,0,0,1-.042-.22.293.293,0,0,1,0-.056V109.383a1.292,1.292,0,0,1,.231-.706l.062-.094h0a1.3,1.3,0,0,1,.6-.442l18.056-6.177a1.331,1.331,0,0,1,.862,2.519Zm6.231,40.643v15.929a6.657,6.657,0,0,1-6.657,6.657H144.552a6.657,6.657,0,0,1-6.657-6.657V80.052a6.657,6.657,0,0,1,6.657-6.657h42.455a6.657,6.657,0,0,1,6.657,6.657v20.375l22.5,7.705h.019a1.339,1.339,0,0,1,.666.575,1.281,1.281,0,0,1,.184.575c0,.035.032.062.032.1s-.013.027-.013.04V136.16a1.341,1.341,0,0,1-.1.5v.016a1.309,1.309,0,0,1-.267.378c-.013.016-.021.035-.035.048a1.28,1.28,0,0,1-.285.192,1.08,1.08,0,0,1-.162.094.347.347,0,0,1-.043.027Zm0-2.814,20.723-7.108V111.262l-20.723,7.1Zm0-39.061v12.3l17.959-6.148ZM191,161.044V80.051a3.993,3.993,0,0,0-3.994-3.994H174.056a1.978,1.978,0,0,1-1.96,1.816H159.454a1.979,1.979,0,0,1-1.96-1.816H144.551a3.993,3.993,0,0,0-3.994,3.994v80.993a3.993,3.993,0,0,0,3.994,3.994h42.455A3.993,3.993,0,0,0,191,161.044Zm42.382-39.609H227.5a1.331,1.331,0,1,0,0,2.662h5.884a1.331,1.331,0,1,0,0-2.662ZM218.964,87.4l-4.332,6.145a1.331,1.331,0,1,0,2.173,1.534l4.332-6.145h0a1.332,1.332,0,1,0-2.173-1.533ZM216.8,150.452a1.331,1.331,0,1,0-2.173,1.537l4.332,6.143a1.332,1.332,0,1,0,2.173-1.541Zm-48.973,8.805h-4.1a1.331,1.331,0,0,0,0,2.663h4.1a1.331,1.331,0,0,0,0-2.663Z" transform="translate(529.937 269.105)" fill="#1b54f8"></path></g><g id="Group_1" data-name="Group 1" transform="translate(-16.785 102.28)"><path id="Subtraction_2" data-name="Subtraction 2" d="M94.518,92.44H65.049a1.2,1.2,0,0,1-1.2-1.2V53.587a1.2,1.2,0,0,1,1.2-1.2h29.47a1.2,1.2,0,0,1,1.2,1.2l0,37.655A1.2,1.2,0,0,1,94.518,92.44ZM66.246,82.617v7.428H93.321V82.617Zm0-27.833V80.222H93.32V54.784ZM56.862,89.168H1.2A1.2,1.2,0,0,1,0,87.97V83.058a1.2,1.2,0,0,1,1.2-1.2H4.912V53.588a1.2,1.2,0,0,1,1.2-1.2H51.951a1.2,1.2,0,0,1,1.2,1.2V81.859h3.715a1.2,1.2,0,0,1,1.2,1.2V87.97A1.2,1.2,0,0,1,56.862,89.168ZM2.394,84.254v2.518H55.666V84.254ZM7.306,54.785V81.859l43.448,0V54.785ZM79.783,87.528a1.2,1.2,0,1,1,1.2-1.2A1.2,1.2,0,0,1,79.783,87.528ZM81.42,46.6H56.862a1.2,1.2,0,1,1,0-2.4H67.125V38.255h-25a1.2,1.2,0,0,1-1.2-1.2V1.2a1.2,1.2,0,0,1,1.2-1.2H94.518a1.2,1.2,0,0,1,1.2,1.2V37.057a1.2,1.2,0,0,1-1.2,1.2h-25v5.951h11.9a1.2,1.2,0,0,1,0,2.4Zm-38.1-18.013v7.27h50v-7.27Zm0-26.193V26.2h50V2.394ZM29.03,41.686H9.385a1.2,1.2,0,0,1-1.2-1.2V6.107a1.2,1.2,0,0,1,1.2-1.2H29.029a1.2,1.2,0,0,1,1.2,1.2V40.488A1.2,1.2,0,0,1,29.03,41.686ZM10.58,31.864v7.428H27.833V31.864Zm0-24.559V29.47H27.833V7.305Zm8.626,29.469a1.2,1.2,0,1,1,1.2-1.2A1.2,1.2,0,0,1,19.207,36.774ZM68.323,33.5a1.2,1.2,0,1,1,1.2-1.2A1.2,1.2,0,0,1,68.323,33.5Z" transform="translate(650.787 569.001)" fill="#1b54f8"></path></g><g id="Group_4" data-name="Group 4" transform="translate(5.347 61.846)"><path id="Subtraction_3" data-name="Subtraction 3" d="M60.974,94.307H33.334a1.085,1.085,0,0,1-1.086-1.086V87.209l-.386-.055a39.273,39.273,0,0,1-9.589-2.36c-2.552-1.1-3.845-2.4-3.845-3.859,0-1.187.774-2.214,2.366-3.14a25.406,25.406,0,0,1,7.3-2.413l.424,2.131a27.607,27.607,0,0,0-5.92,1.8c-.663.312-1.8.926-1.971,1.532l-.036.125.037.124c.453,1.532,5.366,2.739,7.458,3.187a92.1,92.1,0,0,0,19.078,1.715A91.552,91.552,0,0,0,66.24,84.273c2.094-.452,7.012-1.672,7.458-3.24l.038-.134-.044-.132c-.138-.412-.856-.945-1.971-1.461a28.247,28.247,0,0,0-5.911-1.79l.429-2.133A25.328,25.328,0,0,1,73.517,77.8c1.59.927,2.364,1.954,2.364,3.14,0,1.463-1.293,2.761-3.845,3.859a39.272,39.272,0,0,1-9.589,2.36l-.386.055v6.012a1.094,1.094,0,0,1-.318.768A1.079,1.079,0,0,1,60.974,94.307ZM34.42,87.48v4.654H59.887V87.48l-.5.051a119.779,119.779,0,0,1-12.238.634,119.787,119.787,0,0,1-12.238-.634Zm0-5.457H32.247V76.331a8.771,8.771,0,0,1,8.764-8.765h2.3L41.9,66.73a10.142,10.142,0,0,1-4.061-4.509l-.08-.175-.183-.062a1.073,1.073,0,0,1-.727-1.01V54.834a1.073,1.073,0,0,1,.726-1.011l.183-.062.081-.176a10.237,10.237,0,0,1,18.62,0l.081.176.183.062a1.071,1.071,0,0,1,.726,1.009v6.139a1.075,1.075,0,0,1-.727,1.012l-.183.062-.08.175A10.142,10.142,0,0,1,52.4,66.73L51,67.566h2.3a8.772,8.772,0,0,1,8.765,8.764v5.691H59.887V76.33a6.592,6.592,0,0,0-6.59-6.592H41.011A6.592,6.592,0,0,0,34.42,76.33v5.692ZM40.114,62.06l.538.719a8.118,8.118,0,0,0,13,0l.536-.719Zm-1.087-6.143v3.971H55.28V55.917Zm8.119-6.142a8.156,8.156,0,0,0-6.494,3.251l-.538.719H54.194l-.538-.719a8.151,8.151,0,0,0-6.494-3.251ZM94.307,63.6H62.959V61.423H94.307v2.172Zm-62.958,0H0V61.423H31.349v2.172ZM15.993,57.454H13.82v-31.8a1.087,1.087,0,0,1,1.086-1.086h8.127V17.528H2.173V57.453H0V16.443a1.088,1.088,0,0,1,1.087-1.086H23.034V4.157A1.087,1.087,0,0,1,24.12,3.072H42.1V5.244H25.207V24.57h8.127a1.08,1.08,0,0,1,.769.318,1.093,1.093,0,0,1,.318.768V48.24H32.247v-21.5H15.993V57.453Zm74.475,0H88.3V52.707l-.255-.122a6.337,6.337,0,0,1-3.584-6.166v-.032c0-3.456,3.9-6.016,4.348-6.3a1.089,1.089,0,0,1,1.154,0c.445.281,4.349,2.843,4.349,6.3v.032a6.334,6.334,0,0,1-3.584,6.166l-.255.122v4.747ZM89.383,42.371l-.253.172A5.931,5.931,0,0,0,86.639,46.3l-.009.044v.044c0,2.565,1.424,4.288,2.753,4.288s2.752-1.723,2.752-4.288v-.044l-.009-.044a5.938,5.938,0,0,0-2.49-3.754l-.253-.172Zm-11.2,15.082H76.012V52.706l-.255-.122a6.335,6.335,0,0,1-3.584-6.165v-.032c0-3.469,3.9-6.017,4.348-6.3a1.089,1.089,0,0,1,1.154,0c.445.281,4.349,2.843,4.349,6.3v.032a6.331,6.331,0,0,1-3.584,6.165l-.255.122v4.747ZM77.1,42.37l-.253.172A5.933,5.933,0,0,0,74.355,46.3l-.009.044v.044c0,2.565,1.423,4.288,2.752,4.288s2.752-1.723,2.752-4.288v-.044l-.009-.044a5.936,5.936,0,0,0-2.491-3.755L77.1,42.37ZM65.9,57.453H63.728V52.706l-.255-.122a6.335,6.335,0,0,1-3.584-6.165v-.032c0-3.473,3.9-6.018,4.349-6.3a1.087,1.087,0,0,1,1.153,0c.445.281,4.349,2.843,4.349,6.3v.032a6.332,6.332,0,0,1-3.584,6.165l-.255.122v4.747ZM64.814,42.37l-.253.172A5.929,5.929,0,0,0,62.071,46.3l-.009.044v.044c0,2.565,1.423,4.288,2.752,4.288s2.752-1.723,2.752-4.288v-.044l-.009-.044a5.936,5.936,0,0,0-2.491-3.755l-.252-.172ZM48.241,42.1H46.067V0h2.174Zm-19.963,0H19.962V39.925h8.315V42.1ZM8.315,40.562H6.143V38.39H8.315v2.171Zm46.118-5.4h0l-1.737-1.3,8.938-11.917a1.143,1.143,0,0,1,1.751,0L67.5,27.428,73.82,19,64.045,5.969l-9.61,12.808-1.739-1.3L63.176,3.506a1.088,1.088,0,0,1,1.739,0l10.26,13.685,3.357-4.472a1.087,1.087,0,0,1,1.738,0L93.821,30.787l-1.738,1.3L79.4,15.181,68.858,29.237l3.465,4.621-1.737,1.3L62.51,24.4,54.434,35.161Zm-26.156-.743H19.962V32.247h8.315v2.171ZM8.315,32.884H6.143V30.712H8.315v2.172Zm0-7.678H6.143V23.034H8.315V25.2ZM38.26,19.064H36.087V16.892H38.26v2.171Zm-6.142,0H29.944V16.892h2.174v2.171Zm6.142-6.143H36.087V10.749H38.26v2.171Zm-6.142,0H29.944V10.749h2.174v2.171Zm56.5-1.535a4.19,4.19,0,0,1-2.941-1.217,4.13,4.13,0,0,1-1.217-2.94,4.158,4.158,0,0,1,4.158-4.157,4.13,4.13,0,0,1,2.94,1.217,4.157,4.157,0,0,1-2.94,7.1Zm0-6.142a1.983,1.983,0,1,0,1.4.58A1.986,1.986,0,0,0,88.615,5.245Z" transform="translate(1005.647 343)" fill="#1b54f8"></path></g><path id="Subtraction_1" data-name="Subtraction 1" d="M93.741,97.307H5.4a1.4,1.4,0,0,1-1.387-1.578v-.006a45.94,45.94,0,0,1,91.111,0v.006a1.4,1.4,0,0,1-1.383,1.578ZM49.566,58.521A42.868,42.868,0,0,0,7.613,92.285L7.131,94.5H92l-.482-2.217A42.814,42.814,0,0,0,49.566,58.521Zm0-12.93a20.8,20.8,0,1,1,20.8-20.8A20.819,20.819,0,0,1,49.568,45.592Zm0-38.786a17.945,17.945,0,1,0,7.017,1.409A17.978,17.978,0,0,0,49.568,6.805Z" transform="translate(257.532 400.847)" fill="#1b54f8"></path><g id="Group_3" data-name="Group 3" transform="translate(-13.995 24.348)"><path id="Path_129" data-name="Path 129" d="M221.841,153.994c-16.752-2.638-17.279-11.476-17.148-13.059a29.405,29.405,0,0,0,7.255-12h.66a4.168,4.168,0,0,0,4.221-4.221v-1.847h.791a1.246,1.246,0,0,0,1.319-1.319v-5.8a1.246,1.246,0,0,0-1.319-1.319h-.791v-3.166a4.2,4.2,0,0,0-3.957-4.221,19.275,19.275,0,0,0-38.252,0,4.2,4.2,0,0,0-3.957,4.221v3.166h-.791a1.246,1.246,0,0,0-1.319,1.319v5.8a1.246,1.246,0,0,0,1.319,1.319h.791v1.847a4.168,4.168,0,0,0,4.221,4.221h.66a29.406,29.406,0,0,0,7.255,12c0,1.583-.4,10.42-17.148,13.059-20.577,3.3-20.05,24.007-20.05,24.139a1.419,1.419,0,0,0,1.319,1.319,1.322,1.322,0,0,0,1.319-1.319c0-.791-.4-18.6,17.808-21.5,15.169-2.374,18.6-9.761,19.259-13.718a14.681,14.681,0,0,0,8.442,2.771,15,15,0,0,0,8.442-2.771c.66,3.957,4.089,11.212,19.259,13.718,18.2,2.9,17.939,20.71,17.808,21.5a1.246,1.246,0,0,0,1.319,1.319,1.322,1.322,0,0,0,1.319-1.319c0-.132.524-20.709-20.054-24.139Zm-28.1-61.072a16.627,16.627,0,0,1,16.488,14.246H177.257A16.626,16.626,0,0,1,193.745,92.922ZM173.3,111.257a1.6,1.6,0,0,1,1.583-1.583h37.461a1.524,1.524,0,0,1,1.583,1.583v13.455a1.524,1.524,0,0,1-1.583,1.583H200.6l-2.77-4.617a4.679,4.679,0,0,0-3.825-2.374h-.4a4.973,4.973,0,0,0-2.77.924,3.221,3.221,0,0,0-1.187,1.451l-2.77,4.749h-12a1.524,1.524,0,0,1-1.583-1.583Zm5.144,17.807h9.366a1.268,1.268,0,0,0,1.187-.791v-.132L191.9,123a2.143,2.143,0,0,1,3.693,0l2.9,5.013a.46.46,0,0,1,.132.264c0,.132.132.132.132.264l.264.264c.132,0,.132.132.264.132h9.761c-2.506,7.254-8.442,14.245-15.3,14.245s-12.795-6.991-15.3-14.114Z" transform="translate(502.398 26.851)" fill="#1b54f8"></path></g><text id="User" transform="translate(285 551.468)" font-size="20" font-family="OpenSans-Semibold, Open Sans" font-weight="600"><tspan x="0" y="0">User</tspan></text><text id="Immersion" transform="translate(466.486 125.5)" font-size="20" font-family="OpenSans-Semibold, Open Sans" font-weight="600"><tspan x="0" y="0">Immersion</tspan></text><text id="Virtual_Reality" data-name="Virtual Reality" transform="translate(682 289)" font-size="20" font-family="OpenSans-Semibold, Open Sans" font-weight="600"><tspan x="-67" y="0">Virtual Reality</tspan></text><text id="Augmented_Reality" data-name="Augmented Reality" transform="translate(682 555)" font-size="20" font-family="OpenSans-Semibold, Open Sans" font-weight="600"><tspan x="-91" y="0">Augmented Reality</tspan></text><text id="The_Metaverse" data-name="The Metaverse" transform="translate(1058 555)" font-size="20" font-family="OpenSans-Semibold, Open Sans" font-weight="600"><tspan x="-71" y="0">The Metaverse</tspan></text><text id="Legacy_Gateways_phones_laptops_etc._" data-name="Legacy Gateways (phones, laptops etc.)" transform="translate(682 820)" font-size="20" font-family="OpenSans-Semibold, Open Sans" font-weight="600"><tspan x="-82" y="0">Legacy Gateways</tspan><tspan x="-103" y="27">(phones, laptops etc.)</tspan></text><path id="Path_135" data-name="Path 135" d="M237.033,154.587H406.164" transform="translate(164.81 297.5)" fill="none" stroke="#b0b0b0" stroke-width="1"></path><path id="Path_138" data-name="Path 138" d="M237.033,154.587H339.495" transform="translate(230.48 31.413)" fill="none" stroke="#b0b0b0" stroke-width="1"></path><path id="Path_141" data-name="Path 141" d="M343.646,154.587H237.033" transform="translate(547.967 31.413)" fill="none" stroke="#b0b0b0" stroke-width="1"></path><rect id="Rectangle_6" data-name="Rectangle 6" width="23" height="22" transform="translate(507 175)" fill="#fff"></rect><rect id="Rectangle_7" data-name="Rectangle 7" width="23" height="22" transform="translate(507 441)" fill="#fff"></rect><path id="Path_139" data-name="Path 139" d="M237.033,154.587H339.493" transform="translate(230.481 562.5)" fill="none" stroke="#b0b0b0" stroke-width="1"></path><rect id="Rectangle_8" data-name="Rectangle 8" width="23" height="22" transform="translate(507 703)" fill="#fff"></rect><path id="Path_144" data-name="Path 144" d="M343.666,154.587H237.033" transform="translate(547.967 562.5)" fill="none" stroke="#b0b0b0" stroke-width="1"></path><path id="Path_137" data-name="Path 137" d="M0,0H266.087" transform="translate(467.997 186) rotate(90)" fill="none" stroke="#b0b0b0" stroke-width="1"></path><path id="Path_142" data-name="Path 142" d="M0,0H266.087" transform="translate(891.162 186) rotate(90)" fill="none" stroke="#b0b0b0" stroke-width="1"></path><path id="Path_140" data-name="Path 140" d="M0,0H266.087" transform="translate(467.997 717.087) rotate(-90)" fill="none" stroke="#b0b0b0" stroke-width="1"></path><path id="Path_146" data-name="Path 146" d="M0,0H605.718" transform="translate(517.938 754.402) rotate(-90)" fill="none" stroke="#b0b0b0" stroke-width="3"></path><path id="Path_143" data-name="Path 143" d="M0,0H266.087" transform="translate(891.162 717.087) rotate(-90)" fill="none" stroke="#b0b0b0" stroke-width="1"></path><path id="Path_136" data-name="Path 136" d="M237.033,154.587H397.716" transform="translate(544.721 297.5)" fill="none" stroke="#b0b0b0" stroke-width="1"></path><g id="Polygon_1" data-name="Polygon 1" transform="translate(580.975 444.5) rotate(90)" fill="#b0b0b0"><path d="M 14.05393409729004 10.5 L 0.9460672736167908 10.5 L 7.500000476837158 0.8875646591186523 L 14.05393409729004 10.5 Z" stroke="none"></path><path d="M 7.500000476837158 1.775143623352051 L 1.892144203186035 10 L 13.10785675048828 10 L 7.500000476837158 1.775143623352051 M 7.500000476837158 0 L 15 11 L 9.5367431640625e-07 11 L 7.500000476837158 0 Z" stroke="none" fill="#b0b0b0"></path></g><g id="Polygon_3" data-name="Polygon 3" transform="translate(580.975 178.5) rotate(90)" fill="#b0b0b0"><path d="M 14.05393409729004 10.5 L 0.9460672736167908 10.5 L 7.500000476837158 0.8875646591186523 L 14.05393409729004 10.5 Z" stroke="none"></path><path d="M 7.500000476837158 1.775143623352051 L 1.892144203186035 10 L 13.10785675048828 10 L 7.500000476837158 1.775143623352051 M 7.500000476837158 0 L 15 11 L 9.5367431640625e-07 11 L 7.500000476837158 0 Z" stroke="none" fill="#b0b0b0"></path></g><g id="Polygon_5" data-name="Polygon 5" transform="translate(510.438 137.685)" fill="#b0b0b0"><path d="M 14.05393409729004 10.5 L 0.9460672736167908 10.5 L 7.500000476837158 0.8875646591186523 L 14.05393409729004 10.5 Z" stroke="none"></path><path d="M 7.500000476837158 1.775143623352051 L 1.892144203186035 10 L 13.10785675048828 10 L 7.500000476837158 1.775143623352051 M 7.500000476837158 0 L 15 11 L 9.5367431640625e-07 11 L 7.500000476837158 0 Z" stroke="none" fill="#b0b0b0"></path></g><g id="Polygon_4" data-name="Polygon 4" transform="translate(580.975 709.587) rotate(90)" fill="#b0b0b0"><path d="M 14.05393409729004 10.50000095367432 L 0.9460672736167908 10.50000095367432 L 7.500000476837158 0.8875656127929688 L 14.05393409729004 10.50000095367432 Z" stroke="none"></path><path d="M 7.500000476837158 1.775144577026367 L 1.892144203186035 10.00000095367432 L 13.10785675048828 10.00000095367432 L 7.500000476837158 1.775144577026367 M 7.500000476837158 9.5367431640625e-07 L 15 11.00000095367432 L 9.5367431640625e-07 11.00000095367432 L 7.500000476837158 9.5367431640625e-07 Z" stroke="none" fill="#b0b0b0"></path></g><g id="Polygon_2" data-name="Polygon 2" transform="translate(953.438 444.5) rotate(90)" fill="#b0b0b0"><path d="M 14.05393409729004 10.5 L 0.9460672736167908 10.5 L 7.500000476837158 0.8875646591186523 L 14.05393409729004 10.5 Z" stroke="none"></path><path d="M 7.500000476837158 1.775143623352051 L 1.892144203186035 10 L 13.10785675048828 10 L 7.500000476837158 1.775143623352051 M 7.500000476837158 0 L 15 11 L 9.5367431640625e-07 11 L 7.500000476837158 0 Z" stroke="none" fill="#b0b0b0"></path></g></g><text id="LeewayHertz" transform="translate(1099 887)" fill="#051c2c" font-size="20" font-family="Georgia"><tspan x="-58" y="0">LeewayHertz</tspan></text></g></svg> 